<svg width="248" height="22" viewBox="0 0 248 22" fill="none" xmlns="http://www.w3.org/2000/svg">
<path d="M24.92 0.0106094L23.0969 4.91205L22.0289 7.78713C22.1368 8.0948 22.2015 8.42368 22.2015 8.77379C22.2015 9.81348 21.6513 10.7471 20.7343 11.2775L19.4506 14.7255L18.7494 16.6246H7.05528L7.7565 14.7255L9.57965 9.82409L10.0112 8.64647V5.19849C10.0112 3.80869 11.0144 2.64168 12.3414 2.37645L13.2152 0.0212184H6.39722L4.57407 4.92266L2.75091 9.82409L0.927759 14.7255L0.226546 16.6246C0.0647272 17.0383 0 17.4627 0 17.8765C0 19.8073 1.59661 21.526 3.72182 21.526H18.4473C20.3999 21.526 22.2231 20.794 23.5931 19.5421C24.4669 18.757 25.1574 17.7598 25.5781 16.614L26.2793 14.7149L26.6893 13.5903L27.4876 11.4261L28.0917 9.80287L29.9148 4.90144L31.2741 1.25188L31.738 0L24.92 0.0106094Z" fill="#981C1F"/>
<path d="M11.9206 8.77378V5.45311C11.9206 4.49828 12.9778 3.90417 13.8085 4.38158L16.7428 6.04722L19.6771 7.71286C20.5186 8.19027 20.5186 9.38911 19.6771 9.86652L16.7428 11.5322L13.8085 13.1978C12.967 13.6752 11.9206 13.0811 11.9206 12.1263V8.77378Z" fill="black"/>
<path d="M83.563 2.13245C83.3688 1.52773 82.9697 0.880572 82.1714 0.434987C81.6428 0.13793 81.0494 0.0106201 80.4453 0.0106201H60.5201L59.2363 3.4586L58.6969 4.92267L57.4563 8.27516L56.8846 9.83471L55.644 13.1872L55.6008 13.3039L55.0614 14.7468L54.3926 16.5397L52.5694 21.4305H58.8156L60.6387 16.5291L60.6603 16.4761L57.8878 14.7362H66.626L67.7695 16.5291L70.9088 21.4305H77.1011L73.9618 16.5291L73.1851 15.309L72.8183 14.7362H74.4257C76.6156 14.7362 78.73 13.8238 80.1648 12.1899C80.1972 12.1475 80.2404 12.1051 80.2727 12.0626C80.7258 11.5322 81.0602 10.9168 81.3084 10.2697L81.4702 9.8241L82.0527 8.26456L83.2933 4.91206L83.5091 4.32855C83.7464 3.62835 83.7896 2.85388 83.563 2.13245ZM75.785 8.26456L75.2132 9.8241H63.1308L63.2602 9.474L63.7025 8.27516L64.3066 6.65196L61.5665 4.93328H77.0256L75.785 8.26456Z" fill="black"/>
<path d="M168.043 2.13245C167.849 1.52773 167.45 0.880572 166.651 0.434987C166.123 0.13793 165.529 0.0106201 164.925 0.0106201H145L143.781 3.28885L143.716 3.4586L143.177 4.92267L141.936 8.27516L141.365 9.83471L140.124 13.1872L140.081 13.3039L139.552 14.7468L138.883 16.5397L137.06 21.4411H143.306L145.13 16.5397L145.151 16.4867L142.379 14.7468H158.916C161.106 14.7468 163.221 13.8344 164.656 12.2006C164.688 12.1581 164.731 12.1157 164.763 12.0732C165.217 11.5428 165.551 10.9275 165.799 10.2803L165.961 9.83471L166.543 8.27516L167.784 4.92267L168 4.33916C168.237 3.62835 168.28 2.85388 168.043 2.13245ZM160.265 8.26456L159.693 9.8241H147.611L147.74 9.474L148.183 8.27516L148.787 6.65196L146.047 4.93328H161.506L160.265 8.26456Z" fill="black"/>
<path d="M173.588 14.7255L174.16 13.166L175.983 8.26456L177.224 4.91206H192.413L194.236 0.0106201H178.108C174.915 0.0106201 172.078 1.97332 170.977 4.91206L169.737 8.26456L167.914 13.166L167.342 14.7255L166.673 16.5185C165.788 18.9056 167.579 21.4199 170.157 21.4199H186.285L188.109 16.5185H172.919L173.588 14.7255Z" fill="black"/>
<path d="M247.14 0.0106201H223.957L222.134 4.91206H230.494L229.243 8.26456L227.43 13.166L226.848 14.7255L226.179 16.5185L224.356 21.4305H230.602L232.425 16.5185L233.094 14.7255L233.666 13.166L235.489 8.26456L236.082 6.66257L233.299 4.91206H245.317L247.14 0.0106201Z" fill="black"/>
<path d="M108.278 0.0106201H93.8115C90.6183 0.0106201 87.7703 1.97332 86.6807 4.91206L85.4401 8.26456L84.8684 9.8241L83.6278 13.1766L83.056 14.7362L82.3871 16.5291L82.2685 16.8474C81.4378 19.0753 83.1207 21.4411 85.5372 21.4411H99.8096C103.003 21.4411 105.851 19.4785 106.94 16.5397L107.609 14.7468L108.181 13.1872L109.422 9.83471L110.004 8.27516L111.245 4.92267L111.428 4.43464C112.205 2.28098 110.597 0.0106201 108.278 0.0106201ZM103.736 8.26456L103.165 9.8241L101.924 13.1766L101.352 14.7362L100.683 16.5291H88.6118L89.2806 14.7362L89.8524 13.1766L91.093 9.8241L91.6755 8.26456L92.3012 6.5777L89.6582 4.91206H104.988L103.736 8.26456Z" fill="black"/>
<path d="M217.16 0.0106201H202.694C199.501 0.0106201 196.663 1.97332 195.563 4.91206L194.322 8.26456L193.74 9.8241L192.499 13.1766L191.917 14.7362L191.248 16.5291L191.129 16.8474C190.298 19.0753 191.981 21.4411 194.398 21.4411H208.67C211.863 21.4411 214.711 19.4785 215.801 16.5397L216.47 14.7468L217.052 13.1872H210.806L210.224 14.7468L209.555 16.5397H197.494L198.163 14.7468L198.745 13.1872L199.986 9.83471L200.569 8.27516L201.194 6.58831L198.551 4.92267H213.881L212.64 8.27516H218.886L220.127 4.92267L220.31 4.43464C221.098 2.28098 219.48 0.0106201 217.16 0.0106201Z" fill="black"/>
<path d="M133.738 8.26457H119.832L120.414 6.6838L117.599 4.92268H133.004L132.378 6.59893H138.624L139.25 4.92268L139.531 4.16943C140.275 2.15368 138.765 0.0212402 136.586 0.0212402H121.957C118.764 0.0212402 115.927 1.98394 114.826 4.92268L113.586 8.27518L113.014 9.83472C112.41 11.4579 113.64 13.1872 115.398 13.1872H129.951L129.379 14.7468L128.71 16.5397H116.779L117.448 14.7468H111.202L110.533 16.5397C109.648 18.9268 111.439 21.4412 114.017 21.4412H127.815C131.008 21.4412 133.856 19.4785 134.946 16.5397L135.615 14.7468L136.186 13.1872L136.542 12.2324C137.265 10.2909 135.82 8.26457 133.738 8.26457Z" fill="black"/>
<path d="M182.639 13.166H185.768L187.591 8.26456H179.144C178.27 10.6516 180.061 13.166 182.639 13.166Z" fill="black"/>
<path d="M29.7314 14.7786L32.6765 16.6246L29.7314 14.7786Z" fill="#F27FA1"/>
<path d="M29.7314 14.7786L29.753 14.7256H29.6559L29.7314 14.7786Z" fill="#F27FA1"/>
<path d="M25.7183 21.5366H30.8534L32.5579 16.9428L32.6765 16.6352L29.7314 14.7892L28.7713 17.3672C28.1456 19.0329 27.0776 20.4545 25.7183 21.5366Z" fill="black"/>
<path d="M55.5253 2.13245C55.3311 1.52773 54.932 0.880572 54.1336 0.434987C53.605 0.13793 53.0009 0.0106201 52.4076 0.0106201H44.5864H35.2117L31.2957 10.5455L30.6916 12.1687L29.7638 14.6513L29.7422 14.7149H46.3664C47.1107 14.7149 47.8443 14.6088 48.5347 14.4073C49.9048 14.0147 51.1454 13.2509 52.0947 12.1687C52.1271 12.1263 52.1702 12.0839 52.2026 12.0414C52.6557 11.511 52.9901 10.8956 53.2383 10.2485L53.4001 9.80289L53.9826 8.24334L55.2232 4.89084L55.439 4.30733C55.7195 3.62835 55.7518 2.85388 55.5253 2.13245ZM47.7472 8.26455L47.1755 9.8241H35.2009L36.3444 6.75805L33.4209 4.92267H42.774H48.9986L47.7472 8.26455Z" fill="black"/>
</svg>
